<?xml version="1.0" standalone="no"?>
<!DOCTYPE svg PUBLIC "-//W3C//DTD SVG 20010904//EN"
 "http://www.w3.org/TR/2001/REC-SVG-20010904/DTD/svg10.dtd">
<svg version="1.0" xmlns="http://www.w3.org/2000/svg"
 width="1024.000000pt" height="1024.000000pt" viewBox="0 0 1024.000000 1024.000000"
 preserveAspectRatio="xMidYMid meet">

<g transform="translate(0.000000,1024.000000) scale(0.100000,-0.100000)"
fill="#000000" stroke="none">
<path d="M4640 8829 c-211 -21 -420 -71 -670 -161 -192 -69 -470 -229 -663
-384 -110 -87 -263 -242 -365 -367 -152 -186 -309 -490 -395 -762 -89 -285
-131 -749 -93 -1035 41 -299 139 -611 268 -845 352 -641 904 -1062 1588 -1209
163 -35 374 -64 525 -72 509 -25 1141 187 1555 524 112 90 308 286 384 382
365 462 523 972 503 1620 -12 372 -64 610 -198 918 -70 160 -124 252 -231 396
-89 119 -295 330 -453 463 -129 109 -361 263 -478 318 -180 85 -455 167 -677
200 -126 20 -466 27 -600 14z m121 -269 c3 -63 3 -456 1 -874 l-5 -758 -76 7
c-42 4 -76 8 -77 9 0 0 3 60 7 131 4 72 10 450 13 840 4 391 9 720 12 732 3
18 13 23 47 26 76 7 71 13 78 -113z m299 110 c291 -28 632 -114 820 -207 l95
-47 -70 -6 c-38 -4 -275 -9 -525 -11 l-455 -4 -3 120 c-3 129 1 165 21 165 6
0 59 -5 117 -10z m-586 -297 c4 -148 5 -371 3 -498 -2 -126 0 -347 3 -490 3
-143 4 -262 3 -265 -2 -2 -61 54 -131 125 l-128 130 1 160 c0 88 2 201 3 251
l2 90 35 17 c36 17 87 79 111 136 34 80 8 192 -62 270 -80 89 -191 123 -279
87 -49 -21 -117 -87 -145 -143 -36 -71 -40 -173 -9 -238 30 -64 84 -117 137
-134 24 -8 45 -18 48 -23 3 -4 5 -123 5 -264 l0 -256 141 -150 c78 -83 154
-159 169 -171 25 -17 49 -62 49 -88 0 -5 -15 -8 -32 -7 -18 1 -56 -2 -85 -6
l-52 -8 -69 64 c-37 34 -112 99 -166 143 -54 44 -140 120 -191 170 -50 49
-106 102 -123 116 -26 22 -32 34 -32 68 0 43 7 53 73 103 19 15 48 52 62 83
24 49 27 64 23 124 -18 245 -300 362 -472 195 -59 -57 -81 -108 -80 -189 1
-128 58 -215 170 -260 54 -22 60 -27 72 -67 8 -24 19 -56 25 -73 25 -66 456
-470 562 -526 25 -13 44 -26 42 -29 -1 -3 -11 -29 -22 -57 l-20 -53 -125 -1
c-188 -2 -1365 3 -1368 6 -1 1 5 52 13 114 35 245 184 624 337 851 174 259
337 418 635 618 232 156 568 290 854 341 4 1 10 -119 13 -266z m-289 -149 c68
-45 86 -141 36 -196 -27 -31 -34 -33 -91 -33 -59 1 -64 3 -96 38 -39 42 -45
87 -19 138 32 61 118 87 170 53z m1853 -266 c-3 -272 -2 -285 19 -330 41 -89
150 -184 238 -207 22 -5 175 -11 343 -13 166 -1 302 -3 302 -3 0 0 21 -58 46
-130 54 -155 99 -329 119 -463 18 -116 21 -611 5 -742 -28 -221 -97 -456 -190
-640 -80 -160 -290 -477 -334 -505 -15 -9 -65 -14 -166 -16 -187 -4 -1437 19
-1471 26 -26 6 -26 7 -32 128 -9 166 -8 814 1 1017 4 91 2 338 -5 550 -8 245
-9 436 -3 525 5 78 6 353 3 613 l-5 472 566 0 566 0 -2 -282z m280 180 c121
-101 250 -226 321 -312 67 -81 73 -94 22 -45 -34 32 -56 34 -55 3 0 -16 -7
-19 -40 -19 -31 0 -42 5 -44 18 -2 9 -12 17 -23 17 -12 0 -19 7 -19 20 0 13
-7 20 -20 20 -17 0 -20 7 -20 40 0 22 -4 40 -10 40 -5 0 -10 26 -10 58 0 47
-4 60 -23 75 -12 10 -35 29 -51 42 -30 24 -108 51 -123 42 -7 -4 -8 -287 -2
-367 1 -14 1 -32 -2 -40 -3 -10 2 -14 13 -12 12 2 16 -2 12 -13 -4 -8 1 -26
10 -40 14 -21 14 -25 2 -25 -8 0 -24 19 -35 43 -19 40 -21 60 -21 274 0 127 3
238 6 247 8 20 10 18 112 -66z m-2688 -278 c34 -24 62 -81 63 -127 2 -86 -144
-130 -215 -66 -27 24 -48 67 -48 95 0 33 41 100 70 116 32 16 94 8 130 -18z
m2847 -79 c3 -13 17 -21 44 -25 54 -9 54 -36 -1 -36 -33 0 -40 3 -40 20 0 17
-7 20 -40 20 -33 0 -40 3 -40 20 0 28 69 29 77 1z m358 -181 c4 -6 -15 -9 -52
-8 l-58 1 45 7 c25 4 48 8 52 8 4 1 10 -2 13 -8z m-2181 -890 c5 -5 -8 -5 -30
0 -22 5 -50 11 -64 13 -14 3 0 3 30 0 30 -2 59 -8 64 -13z m-169 0 c-3 -5 -12
-10 -18 -10 -7 0 -6 4 3 10 19 12 23 12 15 0z m-85 -40 c0 -5 -8 -10 -17 -10
-15 0 -16 2 -3 10 19 12 20 12 20 0z m-68 -62 c-16 -34 -27 -183 -13 -173 5 2
13 -21 20 -51 10 -54 41 -103 82 -132 45 -31 258 -45 300 -19 28 17 34 1 11
-30 -51 -72 -182 -102 -286 -67 -73 25 -151 104 -177 179 -34 97 -16 210 47
292 32 42 37 42 16 1z m-254 -103 c-2 -35 -6 -66 -9 -69 -3 -3 -334 -2 -737 1
l-732 6 0 64 0 63 741 0 741 0 -4 -65z m9 -267 c6 -35 8 -65 6 -68 -3 -3 -98
-6 -213 -8 l-208 -3 -45 -58 c-26 -32 -132 -139 -237 -237 -125 -118 -194
-190 -202 -212 -9 -25 -24 -38 -65 -57 -60 -27 -104 -85 -128 -170 -29 -97 24
-221 120 -280 41 -25 61 -31 124 -33 71 -3 80 -1 131 30 63 38 94 80 116 157
14 45 14 63 5 107 -17 74 -99 182 -138 184 -33 1 -2 38 135 166 81 76 173 165
206 197 l59 59 203 6 c118 3 204 1 204 -4 0 -5 -4 -14 -8 -19 -11 -17 -350
-298 -465 -387 -42 -33 -45 -49 -55 -288 l-7 -154 -55 -31 c-127 -70 -175
-231 -106 -350 34 -57 105 -119 154 -133 61 -18 147 -15 191 8 54 27 117 102
137 162 19 58 15 129 -11 178 -25 48 -84 109 -128 132 l-40 20 7 159 c4 87 9
165 12 171 7 16 193 185 284 259 36 29 91 75 123 102 l59 50 106 0 107 -1 3
-846 c3 -794 2 -846 -14 -846 -10 0 -44 7 -76 16 -44 13 -60 22 -63 38 -3 11
-4 282 -2 600 3 660 8 618 -83 674 -79 47 -129 43 -193 -17 -61 -56 -75 -135
-35 -199 22 -37 85 -71 129 -72 25 0 27 -4 33 -61 7 -67 9 -909 2 -909 -23 0
-210 76 -322 131 -297 145 -524 325 -737 584 -192 233 -293 421 -391 722 -65
200 -90 304 -101 423 -3 36 -8 86 -11 112 l-6 48 489 3 c268 1 601 3 739 5
l250 2 11 -62z m656 -355 c3 -5 8 -392 12 -860 l8 -853 -34 0 c-19 0 -51 3
-71 6 l-38 7 0 853 0 854 59 0 c33 0 62 -3 64 -7z m-1452 -426 c40 -27 59 -60
59 -105 0 -44 -14 -68 -52 -88 -67 -35 -160 9 -174 82 -7 40 1 66 33 104 32
38 84 41 134 7z m460 -452 c36 -19 69 -70 69 -108 0 -35 -24 -83 -49 -97 -48
-25 -159 -2 -180 38 -6 12 -11 42 -11 67 0 40 5 52 34 81 39 39 86 45 137 19z
m2666 -249 c7 -6 -27 -35 -132 -113 -295 -218 -558 -345 -880 -424 -170 -42
-285 -59 -397 -59 l-98 0 0 307 0 306 751 -6 c413 -3 753 -8 756 -11z"/>
<path d="M3058 7441 c-69 -22 -121 -71 -163 -151 -27 -51 -25 -163 4 -223 26
-53 87 -112 140 -135 90 -39 249 -5 315 68 56 62 77 159 52 243 -20 69 -97
157 -158 181 -49 20 -152 29 -190 17z m146 -156 c34 -25 56 -69 56 -109 0 -45
-33 -109 -65 -126 -37 -20 -94 -4 -132 36 -54 57 -56 133 -5 187 22 23 34 27
76 27 29 0 59 -7 70 -15z"/>
<path d="M5658 7402 c-60 -47 -243 -235 -263 -269 -11 -18 -22 -33 -25 -33 -3
0 -21 16 -40 35 -42 43 -54 44 -70 5 -11 -28 -10 -34 16 -71 35 -50 87 -91
105 -84 8 4 28 23 44 44 17 20 55 59 85 87 92 84 240 241 240 256 0 20 -29 58
-44 58 -7 0 -29 -13 -48 -28z"/>
<path d="M5213 7330 c-80 -19 -93 -56 -93 -257 0 -150 1 -160 23 -187 l23 -28
201 -3 c201 -3 202 -3 224 21 12 13 26 45 30 71 12 73 11 223 -2 223 -16 0
-79 -50 -91 -74 -6 -11 -10 -46 -9 -77 l2 -57 -116 -7 c-134 -9 -154 -1 -173
63 -11 37 -61 92 -83 92 -20 0 -8 28 15 34 13 3 42 24 65 47 l42 40 64 -6 c50
-6 68 -4 88 9 24 16 77 84 77 99 0 9 -246 7 -287 -3z"/>
<path d="M6056 7252 c-178 -1 -274 -6 -283 -13 -21 -18 -16 -73 8 -95 20 -18
46 -19 378 -26 358 -7 557 -2 599 13 18 7 22 16 22 47 0 67 -8 69 -245 73
-115 2 -331 3 -479 1z m224 -37 c0 -23 -3 -25 -42 -24 -24 1 -33 4 -20 6 14 3
22 12 22 24 0 12 7 19 20 19 15 0 20 -7 20 -25z"/>
<path d="M6164 7041 c-331 -5 -364 -8 -382 -24 -31 -28 -33 -55 -7 -85 l23
-27 479 3 c420 3 480 5 495 19 24 22 23 75 -2 98 -24 22 -102 24 -606 16z"/>
<path d="M5520 6726 c-62 -63 -122 -129 -133 -147 -11 -19 -22 -36 -23 -38 -2
-2 -17 7 -33 19 -39 27 -63 23 -75 -13 -9 -25 -6 -32 46 -84 l56 -55 176 178
c97 99 179 187 182 197 8 25 -23 57 -56 57 -21 0 -52 -25 -140 -114z"/>
<path d="M5173 6730 c-40 -24 -57 -68 -49 -125 7 -40 10 -45 34 -45 18 0 38
12 63 40 35 38 39 40 99 40 59 0 65 2 96 36 68 72 70 71 -81 71 -111 1 -138
-2 -162 -17z"/>
<path d="M6064 6672 l-282 -2 -17 -36 c-16 -34 -16 -37 1 -55 9 -10 33 -23 53
-28 38 -10 919 -7 929 3 3 3 -11 6 -31 6 -19 0 -42 6 -49 13 -7 8 -26 17 -41
21 -15 3 -27 13 -27 20 0 8 -10 16 -22 19 -13 3 -42 12 -64 21 -53 19 -108 22
-450 18z"/>
<path d="M5565 6588 l-49 -45 -4 -76 -4 -75 -103 -7 c-56 -4 -112 -4 -123 -1
-12 4 -34 26 -49 49 -25 37 -88 85 -98 75 -2 -2 -7 -38 -11 -80 l-7 -77 36
-36 35 -35 198 2 197 3 19 25 c17 23 18 42 16 174 l-3 149 -50 -45z"/>
<path d="M5805 6458 c-48 -26 -59 -78 -26 -119 l19 -23 475 -1 c465 0 476 0
491 20 26 33 20 90 -10 114 -26 21 -36 21 -478 21 -307 -1 -457 -4 -471 -12z"/>
<path d="M5173 6159 c-18 -11 -34 -28 -37 -37 -4 -15 -11 -318 -7 -349 0 -6
13 -25 27 -42 l26 -31 188 0 c104 0 196 3 205 6 37 14 45 57 45 229 0 181 -7
212 -57 234 -14 7 -92 11 -191 11 -151 0 -170 -2 -199 -21z m325 -101 c8 -8
12 -52 12 -130 l0 -118 -132 0 -133 0 0 130 0 130 121 0 c80 0 124 -4 132 -12z"/>
<path d="M5777 6089 c-29 -46 -26 -74 13 -94 25 -13 97 -15 496 -15 257 0 465
3 461 6 -3 3 -143 7 -311 8 -167 0 -308 5 -312 9 -4 4 -2 7 4 7 17 0 15 27 -3
34 -20 7 -45 -3 -45 -19 0 -7 6 -16 13 -18 6 -3 -18 -6 -55 -6 -36 -1 -73 -4
-82 -7 -21 -8 -21 22 0 34 13 7 11 14 -17 41 -27 28 -42 34 -90 38 -52 5 -58
3 -72 -18z"/>
<path d="M5785 5876 c-30 -30 -33 -74 -6 -107 l19 -24 482 1 c536 1 514 -2
514 69 0 23 -8 43 -22 58 l-23 22 -469 3 -470 3 -25 -25z"/>
<path d="M5165 5568 l-34 -33 -3 -192 -3 -192 27 -28 28 -27 197 2 c261 4 243
-14 243 238 0 207 -6 234 -61 253 -18 6 -102 11 -196 11 l-163 0 -35 -32z
m345 -229 l0 -142 -61 7 c-34 3 -93 6 -130 6 l-69 0 0 135 0 135 130 0 130 0
0 -141z"/>
<path d="M5976 5520 l-189 -5 -21 -28 -20 -27 27 -28 27 -27 468 -5 c453 -5
468 -5 490 14 31 27 29 69 -5 96 -26 21 -34 21 -308 18 -154 -2 -365 -5 -469
-8z"/>
<path d="M5778 5283 c-8 -10 -18 -26 -22 -36 -7 -21 20 -73 43 -82 21 -8 859
-25 893 -18 32 6 32 4 16 54 -10 35 -28 54 -28 29 0 -5 -6 -7 -13 -5 -7 3 -12
20 -12 38 l0 32 -431 3 c-401 2 -432 1 -446 -15z"/>
<path d="M2909 6157 c-57 -21 -97 -54 -126 -105 -24 -39 -28 -58 -28 -117 2
-273 338 -355 442 -108 19 47 14 164 -10 209 -52 100 -182 156 -278 121z m132
-176 c52 -52 30 -151 -35 -163 -59 -12 -126 61 -111 120 18 74 93 96 146 43z"/>
<path d="M2014 3783 l-61 -4 -6 -211 c-4 -116 -7 -251 -7 -300 l0 -88 70 0 70
0 0 305 c0 168 -1 304 -2 303 -2 -1 -30 -3 -64 -5z"/>
<path d="M3839 3779 c-150 -24 -238 -127 -247 -286 -4 -74 -2 -88 22 -137 37
-75 120 -150 185 -166 67 -16 171 -16 200 0 23 12 27 10 54 -24 18 -23 37 -36
52 -36 26 0 95 59 95 81 0 8 -18 22 -40 31 -48 20 -50 37 -13 104 24 42 28 60
28 129 0 70 -4 87 -30 134 -38 69 -85 115 -149 145 -62 29 -97 35 -157 25z
m116 -147 c55 -37 87 -104 88 -183 0 -72 -13 -87 -54 -58 -33 23 -62 24 -83 3
-21 -21 -20 -36 5 -68 18 -23 19 -27 4 -32 -52 -20 -167 59 -185 127 -13 47 1
135 27 175 44 67 129 83 198 36z"/>
<path d="M1490 3754 c-6 -14 -10 -27 -10 -30 0 -2 -45 -111 -101 -241 -107
-251 -116 -273 -118 -287 -1 -5 28 -9 64 -10 l65 -2 17 44 c27 71 30 72 164
72 l120 0 26 -60 26 -60 74 0 c40 0 73 3 73 6 0 4 -26 61 -59 128 -32 66 -91
199 -132 293 l-74 172 -63 1 c-58 0 -63 -2 -72 -26z m90 -167 c0 -7 16 -45 35
-86 19 -40 35 -75 35 -77 0 -2 -38 -4 -84 -4 l-83 0 27 58 c15 31 33 74 39 95
12 34 31 43 31 14z"/>
<path d="M2485 3767 c-3 -7 -4 -140 -3 -297 l3 -285 68 -2 67 -2 -2 92 -3 92
54 0 55 0 65 -93 66 -93 70 6 c39 4 72 8 74 10 2 2 -17 28 -41 57 -57 68 -105
150 -79 133 26 -15 100 127 101 193 0 80 -70 170 -150 192 -54 15 -339 13
-345 -3z m344 -131 c28 -26 35 -69 17 -104 -20 -39 -31 -42 -142 -42 l-94 0 0
78 c0 43 3 82 8 86 4 5 48 6 99 4 71 -3 96 -8 112 -22z"/>
<path d="M3089 3538 c-2 -134 -3 -268 -1 -298 l4 -55 211 3 c116 2 212 4 213
5 1 1 4 28 8 60 l6 57 -155 0 -155 0 0 55 0 55 115 1 c63 1 121 2 128 3 8 1
12 20 13 54 l2 52 -129 0 -129 0 0 65 0 65 150 0 150 0 0 60 0 60 -214 0 -214
0 -3 -242z"/>
<path d="M4300 3597 c0 -229 9 -266 83 -342 63 -65 108 -80 218 -72 88 6 123
21 169 73 63 72 68 98 72 322 l3 202 -62 0 -63 0 0 -189 c0 -179 -1 -190 -23
-222 -43 -65 -130 -87 -192 -49 -61 38 -64 49 -67 262 l-3 193 -67 3 -68 3 0
-184z"/>
<path d="M4986 3772 c-3 -5 -4 -137 -3 -295 l2 -287 68 0 67 0 0 84 c0 90 3
96 58 96 22 0 40 -16 96 -90 l69 -90 74 0 c67 0 73 2 64 18 -5 9 -19 26 -32
37 -12 11 -37 44 -56 74 l-35 53 40 42 c75 76 100 170 66 242 -23 48 -87 100
-139 113 -51 13 -331 15 -339 3z m296 -118 c59 -11 90 -102 49 -143 -14 -14
-40 -21 -93 -26 -125 -12 -123 -13 -126 79 -4 110 -5 109 75 101 38 -3 80 -9
95 -11z"/>
<path d="M5586 3704 c-4 -41 -6 -174 -5 -295 l1 -219 70 0 69 0 -3 90 -3 91
40 -3 c38 -3 43 -7 97 -88 l57 -85 68 -6 c37 -3 72 -2 76 2 5 3 -11 31 -35 60
-56 70 -101 139 -90 139 23 0 102 84 118 125 21 56 16 141 -12 177 -52 69
-116 88 -300 88 l-141 0 -7 -76z m303 -57 c30 -15 42 -56 30 -101 -12 -42 -23
-47 -126 -53 l-83 -6 0 87 0 86 78 0 c42 0 88 -6 101 -13z"/>
<path d="M6160 3486 l0 -294 63 -4 c34 -2 64 -2 66 -1 3 2 5 77 5 167 1 114 4
162 11 156 6 -5 33 -51 59 -102 47 -89 81 -138 97 -138 4 0 35 48 68 108 34
59 69 118 79 130 20 26 19 30 48 -260 l6 -58 60 0 61 0 -6 28 c-3 16 -9 149
-13 296 l-7 267 -70 -3 -70 -3 -59 -110 c-32 -60 -65 -125 -73 -142 -9 -18
-20 -33 -25 -33 -5 0 -22 24 -36 53 -15 28 -42 75 -60 104 -18 28 -42 70 -54
92 l-20 41 -65 0 -65 0 0 -294z"/>
<path d="M6880 3593 c0 -104 3 -237 6 -298 l7 -110 218 0 219 0 0 63 0 62
-160 0 -160 0 0 55 0 54 132 3 132 3 -3 50 c-1 28 -4 51 -5 52 -1 2 -62 6
-134 9 l-132 7 0 54 0 53 154 0 154 0 4 65 3 65 -217 0 -218 0 0 -187z"/>
<path d="M7425 3662 c0 -248 6 -447 13 -459 4 -6 32 -13 62 -14 l55 -3 -4 174
-3 175 27 -25 c38 -35 173 -204 214 -267 l33 -53 65 0 c57 0 64 2 59 18 -2 9
-6 139 -8 289 l-3 271 -35 6 c-86 14 -80 27 -80 -164 0 -93 -3 -170 -7 -169
-9 0 -96 104 -203 242 l-75 97 -55 0 -55 0 0 -118z"/>
<path d="M8010 3721 l0 -58 53 -7 c28 -3 66 -6 83 -6 l32 0 7 -235 7 -235 62
0 62 0 -1 238 0 237 88 -2 c97 -1 93 -6 81 81 l-7 46 -233 0 -234 0 0 -59z"/>
<path d="M4045 2919 c-3 -8 -4 -142 -3 -299 3 -279 3 -285 23 -282 52 8 95 24
90 32 -4 6 -3 41 1 79 6 66 8 70 35 76 41 9 60 -6 129 -97 35 -46 69 -87 78
-92 8 -5 42 -6 76 -3 64 6 63 5 143 101 22 26 24 27 130 24 l108 -3 16 -60 16
-60 68 -3 67 -3 -6 33 c-3 18 -20 69 -37 113 -17 44 -55 150 -83 235 -71 210
-66 202 -128 198 l-52 -3 -27 -65 c-15 -36 -48 -112 -74 -170 -65 -143 -97
-239 -93 -277 2 -17 1 -30 -2 -28 -10 6 -120 162 -120 170 0 4 21 31 47 62 40
47 47 61 51 108 2 30 2 65 -2 79 -7 29 -59 91 -90 108 -11 7 -79 15 -151 19
-71 4 -147 10 -167 14 -28 6 -39 4 -43 -6z m293 -140 c33 -11 44 -36 33 -77
-11 -39 -45 -52 -138 -52 l-83 0 0 63 c0 35 3 67 7 70 10 11 147 8 181 -4z
m435 -91 c22 -30 47 -88 47 -109 0 -5 -31 -9 -70 -9 -58 0 -70 3 -70 16 0 22
51 134 61 134 4 0 19 -15 32 -32z"/>
<path d="M5745 2920 c-173 -5 -190 -7 -189 -22 0 -10 1 -38 2 -63 l2 -45 70 0
70 0 1 -182 c0 -101 4 -203 7 -228 l7 -45 62 -3 63 -3 2 233 3 233 76 3 c75 3
77 3 82 31 4 16 3 45 0 65 -5 33 -8 36 -37 34 -17 -1 -116 -5 -221 -8z"/>
<path d="M2950 2914 c0 -5 32 -47 71 -94 91 -110 134 -172 131 -188 -3 -12
-65 -103 -160 -234 -12 -17 -21 -36 -19 -42 2 -6 29 -12 60 -14 54 -3 56 -2
73 30 24 46 117 157 129 154 6 -1 40 -45 76 -97 36 -52 71 -94 78 -93 6 1 34
2 61 3 28 0 50 5 50 11 0 22 -107 189 -153 237 l-49 52 17 35 c10 20 53 76 96
124 44 48 79 90 79 93 0 3 -26 11 -57 18 -72 14 -88 4 -153 -93 l-45 -67 -35
39 c-19 21 -51 58 -70 81 -34 43 -36 43 -107 49 -40 2 -73 1 -73 -4z"/>
<path d="M3526 2912 c-4 -6 -9 -33 -13 -60 l-5 -49 83 -7 c46 -4 85 -8 86 -10
2 -2 5 -103 8 -226 2 -122 6 -224 8 -226 6 -6 93 7 107 16 10 6 10 51 1 220
-6 117 -8 216 -5 222 4 6 41 7 95 2 l89 -7 0 62 0 61 -112 0 c-62 0 -163 3
-224 6 -78 5 -113 4 -118 -4z"/>
<path d="M5238 2906 c-20 -7 -57 -25 -82 -40 -187 -110 -162 -392 46 -495 102
-51 222 -38 304 33 35 30 37 35 24 51 -8 10 -32 29 -53 42 l-39 25 -24 -23
c-17 -16 -40 -24 -79 -27 -48 -4 -61 -1 -93 22 -106 73 -107 193 -3 274 52 39
103 42 169 11 78 -38 140 2 98 65 -8 13 -39 35 -67 50 -60 29 -139 34 -201 12z"/>
<path d="M6200 2899 c-50 -22 -124 -89 -146 -132 -26 -48 -36 -133 -24 -191
14 -69 83 -155 164 -205 55 -34 65 -36 140 -36 68 0 87 4 120 24 45 28 132
155 142 207 17 89 -29 228 -94 285 -79 70 -208 90 -302 48z m176 -115 c44 -21
84 -88 84 -140 -1 -82 -54 -154 -131 -174 -52 -14 -80 -5 -122 38 -80 82 -81
154 -5 229 66 64 112 76 174 47z"/>
<path d="M6744 2913 l-61 -4 -7 -46 c-3 -25 -6 -151 -6 -280 l0 -233 26 -10
c14 -6 43 -10 65 -10 l39 0 0 100 0 100 44 0 c44 0 45 -1 100 -77 30 -43 61
-86 68 -95 9 -11 36 -18 91 -23 42 -4 77 -3 77 2 0 4 -27 42 -60 83 -33 41
-63 83 -66 93 -4 14 6 31 35 61 49 50 71 100 71 161 0 39 -6 51 -41 90 -61 66
-110 86 -221 90 -51 1 -121 1 -154 -2z m214 -129 c48 -10 75 -41 68 -78 -12
-56 -35 -69 -136 -74 l-90 -4 0 75 c0 51 4 77 13 80 18 8 109 8 145 1z"/>
<path d="M2485 2733 c4 -98 9 -227 11 -288 l4 -110 209 0 209 0 4 57 c4 70 12
67 -175 69 l-138 1 3 52 3 51 115 6 c63 4 118 7 122 8 7 1 5 88 -3 95 -2 2
-59 6 -127 8 l-122 3 0 58 0 57 150 0 c136 0 150 2 150 18 0 9 3 34 6 55 l7
37 -218 0 -218 0 8 -177z"/>
<path d="M7613 2663 l-273 -3 0 -48 0 -48 510 -1 c569 -1 544 -4 538 66 l-3
36 -250 0 c-137 0 -373 -1 -522 -2z"/>
<path d="M1274 2636 c-3 -14 -3 -34 1 -45 6 -20 13 -21 198 -21 106 0 311 -3
457 -7 146 -3 291 -3 322 1 50 6 59 11 64 31 3 13 3 33 -1 44 -6 21 -9 21
-520 21 l-515 0 -6 -24z"/>
<path d="M3725 1953 c6 -27 65 -193 86 -241 6 -16 16 -22 31 -20 23 3 44 50
57 128 l7 45 26 -55 c14 -30 29 -70 33 -88 5 -26 11 -32 27 -30 15 2 28 28 59
118 57 162 56 160 27 160 -23 0 -28 -8 -53 -95 -16 -52 -31 -93 -34 -90 -3 3
-15 44 -27 92 -35 135 -57 138 -93 14 -26 -90 -37 -106 -47 -64 -3 15 -14 55
-23 88 -16 57 -19 60 -50 63 -32 3 -33 2 -26 -25z"/>
<path d="M4560 1841 l0 -138 29 -6 c51 -10 128 4 150 27 32 35 36 70 10 95
-18 16 -20 24 -11 33 16 16 15 70 -1 92 -14 19 -76 35 -139 36 l-38 0 0 -139z
m130 54 c0 -26 -25 -45 -59 -45 -17 0 -21 6 -21 35 0 34 1 35 40 35 36 0 40
-3 40 -25z m25 -106 c9 -28 -8 -39 -62 -39 -41 0 -43 1 -43 30 0 29 1 30 49
30 42 0 51 -3 56 -21z"/>
<path d="M4230 1933 c0 -21 3 -82 7 -135 l6 -98 82 0 c45 0 84 3 87 6 3 3 4
14 1 25 -5 16 -14 19 -64 19 -59 0 -59 0 -59 29 0 29 2 30 53 33 38 2 52 7 52
18 0 11 -14 16 -52 18 -45 3 -52 6 -58 29 -3 14 -3 28 0 31 3 3 32 8 65 10 55
4 60 6 60 28 0 24 -2 24 -90 24 l-90 0 0 -37z"/>
<path d="M5147 1941 c-10 -17 -29 -60 -42 -96 -14 -37 -34 -84 -45 -105 -25
-50 -25 -50 8 -50 20 0 30 7 40 29 11 25 19 29 68 35 62 7 78 0 88 -39 4 -16
13 -25 26 -25 11 0 20 2 20 4 0 10 -103 253 -112 264 -17 19 -32 14 -51 -17z
m53 -87 c11 -26 20 -51 20 -56 0 -8 -58 -2 -69 8 -4 4 20 94 25 94 2 0 12 -21
24 -46z"/>
<path d="M5440 1831 c0 -127 2 -139 19 -144 16 -4 20 3 25 42 6 46 6 46 46 46
42 1 73 22 96 67 19 36 9 72 -28 103 -25 21 -40 25 -94 25 l-64 0 0 -139z
m135 69 c9 -30 -2 -55 -31 -68 -38 -18 -51 -14 -55 16 -8 59 -1 72 41 72 30 0
40 -5 45 -20z"/>
<path d="M5762 1825 l3 -145 27 0 c25 0 27 3 25 42 l-2 43 48 12 c98 24 128
72 87 138 -29 47 -47 55 -125 55 l-67 0 4 -145z m126 83 c19 -19 14 -55 -10
-72 -29 -20 -54 -20 -62 0 -8 21 -8 69 1 77 11 11 58 8 71 -5z"/>
<path d="M6123 1955 c-32 -23 -63 -78 -63 -114 0 -43 21 -81 66 -120 31 -28
42 -32 71 -26 80 15 83 18 83 90 l0 65 -42 -6 c-70 -9 -76 -14 -45 -30 18 -10
27 -23 27 -40 0 -22 -4 -25 -32 -22 -20 2 -38 13 -51 30 -18 24 -19 34 -11 75
l9 48 67 -3 c37 -1 69 2 72 7 3 5 -8 21 -25 35 -35 30 -92 35 -126 11z"/>
<path d="M3387 1833 c-10 -3 -16 -10 -14 -16 4 -13 80 -22 106 -12 14 6 14 8
-3 21 -19 14 -53 16 -89 7z"/>
</g>
</svg>
